<mxfile host="app.diagrams.net" modified="2024-05-22T14:18:41.314Z" agent="Mozilla/5.0 (X11; Linux x86_64) AppleWebKit/537.36 (KHTML, like Gecko) Chrome/125.0.0.0 Safari/537.36" etag="VxG4kEozvRI4nmlavkza" version="24.4.6" type="github">
  <diagram name="Página-1" id="1nyTMPivAL7rq0uYCnXq">
    <mxGraphModel dx="880" dy="481" grid="1" gridSize="10" guides="1" tooltips="1" connect="1" arrows="1" fold="1" page="1" pageScale="1" pageWidth="827" pageHeight="1169" math="0" shadow="0">
      <root>
        <mxCell id="0" />
        <mxCell id="1" parent="0" />
        <mxCell id="K-djA_FYfQyhN0rbXy38-2" value="Memoria JVM-Classes" style="text;strokeColor=none;fillColor=none;html=1;fontSize=24;fontStyle=1;verticalAlign=middle;align=center;" vertex="1" parent="1">
          <mxGeometry x="364" y="20" width="100" height="40" as="geometry" />
        </mxCell>
        <mxCell id="K-djA_FYfQyhN0rbXy38-3" value="" style="dashed=0;outlineConnect=0;html=1;align=center;labelPosition=center;verticalLabelPosition=bottom;verticalAlign=top;shape=mxgraph.webicons.java;gradientColor=#DFDEDE" vertex="1" parent="1">
          <mxGeometry x="550" y="10" width="60" height="60" as="geometry" />
        </mxCell>
        <mxCell id="K-djA_FYfQyhN0rbXy38-26" value="" style="shape=partialRectangle;html=1;whiteSpace=wrap;connectable=0;strokeColor=inherit;overflow=hidden;fillColor=none;top=0;left=0;bottom=0;right=0;pointerEvents=1;fontSize=16;" vertex="1" parent="1">
          <mxGeometry x="520" y="80" width="77" height="41" as="geometry">
            <mxRectangle width="77" height="41" as="alternateBounds" />
          </mxGeometry>
        </mxCell>
        <mxCell id="K-djA_FYfQyhN0rbXy38-27" value="" style="shape=partialRectangle;html=1;whiteSpace=wrap;connectable=0;strokeColor=inherit;overflow=hidden;fillColor=none;top=0;left=0;bottom=0;right=0;pointerEvents=1;fontSize=16;" vertex="1" parent="1">
          <mxGeometry x="520" y="121" width="77" height="159" as="geometry">
            <mxRectangle width="77" height="159" as="alternateBounds" />
          </mxGeometry>
        </mxCell>
        <mxCell id="K-djA_FYfQyhN0rbXy38-87" value="" style="shape=partialRectangle;html=1;whiteSpace=wrap;connectable=0;strokeColor=inherit;overflow=hidden;fillColor=none;top=0;left=0;bottom=0;right=0;pointerEvents=1;fontSize=16;" vertex="1" parent="1">
          <mxGeometry x="360" y="139" width="26" height="69" as="geometry">
            <mxRectangle width="26" height="69" as="alternateBounds" />
          </mxGeometry>
        </mxCell>
        <mxCell id="K-djA_FYfQyhN0rbXy38-114" value="&lt;font style=&quot;font-size: 19px;&quot;&gt;Elden&lt;/font&gt;" style="rounded=0;whiteSpace=wrap;html=1;" vertex="1" parent="1">
          <mxGeometry x="190" y="90" width="120" height="60" as="geometry" />
        </mxCell>
        <mxCell id="K-djA_FYfQyhN0rbXy38-115" value="&lt;span style=&quot;font-size: 19px;&quot;&gt;S1&lt;/span&gt;&lt;span style=&quot;color: rgba(0, 0, 0, 0); font-family: monospace; font-size: 0px; text-align: start; text-wrap: nowrap;&quot;&gt;%3CmxGraphModel%3E%3Croot%3E%3CmxCell%20id%3D%220%22%2F%3E%3CmxCell%20id%3D%221%22%20parent%3D%220%22%2F%3E%3CmxCell%20id%3D%222%22%20value%3D%22%26lt%3Bfont%20style%3D%26quot%3Bfont-size%3A%2019px%3B%26quot%3B%26gt%3BElden%26lt%3B%2Ffont%26gt%3B%22%20style%3D%22rounded%3D0%3BwhiteSpace%3Dwrap%3Bhtml%3D1%3B%22%20vertex%3D%221%22%20parent%3D%221%22%3E%3CmxGeometry%20x%3D%22190%22%20y%3D%2290%22%20width%3D%22120%22%20height%3D%2260%22%20as%3D%22geometry%22%2F%3E%3C%2FmxCell%3E%3C%2Froot%3E%3C%2FmxGraphModel%3E&lt;/span&gt;" style="rounded=0;whiteSpace=wrap;html=1;" vertex="1" parent="1">
          <mxGeometry x="310" y="90" width="50" height="60" as="geometry" />
        </mxCell>
        <mxCell id="K-djA_FYfQyhN0rbXy38-117" value="&lt;span style=&quot;font-size: 19px;&quot;&gt;S2&lt;/span&gt;" style="rounded=0;whiteSpace=wrap;html=1;" vertex="1" parent="1">
          <mxGeometry x="360" y="90" width="50" height="60" as="geometry" />
        </mxCell>
        <mxCell id="K-djA_FYfQyhN0rbXy38-118" value="&lt;b style=&quot;box-sizing: border-box; line-height: 1.25; margin: 0px; padding: 0px; vertical-align: baseline; color: rgb(51, 51, 51); font-family: jaf-domus, sans-serif; font-size: 16px; text-align: left; background-color: rgb(255, 255, 255);&quot;&gt;Old Generation&lt;/b&gt;" style="rounded=0;whiteSpace=wrap;html=1;" vertex="1" parent="1">
          <mxGeometry x="410" y="90" width="160" height="60" as="geometry" />
        </mxCell>
        <mxCell id="K-djA_FYfQyhN0rbXy38-119" value="&lt;b style=&quot;box-sizing: border-box; line-height: 1.25; margin: 0px; padding: 0px; vertical-align: baseline; color: rgb(51, 51, 51); font-family: jaf-domus, sans-serif; font-size: 16px; text-align: left; background-color: rgb(255, 255, 255);&quot;&gt;PermGen&lt;/b&gt;" style="rounded=0;whiteSpace=wrap;html=1;" vertex="1" parent="1">
          <mxGeometry x="570" y="90" width="120" height="60" as="geometry" />
        </mxCell>
        <mxCell id="K-djA_FYfQyhN0rbXy38-120" value="Classes novas" style="rounded=0;whiteSpace=wrap;html=1;rotation=90;" vertex="1" parent="1">
          <mxGeometry x="190" y="150" width="120" height="120" as="geometry" />
        </mxCell>
        <mxCell id="K-djA_FYfQyhN0rbXy38-121" value="Classes sobreviventes" style="rounded=0;whiteSpace=wrap;html=1;rotation=90;" vertex="1" parent="1">
          <mxGeometry x="275" y="185" width="120" height="50" as="geometry" />
        </mxCell>
        <mxCell id="K-djA_FYfQyhN0rbXy38-122" value="Classes sobreviventes" style="rounded=0;whiteSpace=wrap;html=1;rotation=90;" vertex="1" parent="1">
          <mxGeometry x="325" y="185" width="120" height="50" as="geometry" />
        </mxCell>
        <mxCell id="K-djA_FYfQyhN0rbXy38-124" value="Classes sobreviventes&lt;div&gt;do S1 &amp;amp; S2&lt;/div&gt;" style="rounded=0;whiteSpace=wrap;html=1;" vertex="1" parent="1">
          <mxGeometry x="410" y="150" width="160" height="120" as="geometry" />
        </mxCell>
        <mxCell id="K-djA_FYfQyhN0rbXy38-125" value="Definições das classes" style="rounded=0;whiteSpace=wrap;html=1;" vertex="1" parent="1">
          <mxGeometry x="570" y="150" width="120" height="120" as="geometry" />
        </mxCell>
      </root>
    </mxGraphModel>
  </diagram>
</mxfile>
